# xmcd
#
# Track frame offsets:
#	150
#	21849
#	46193
#	67194
#	96762
#	121718
#	141735
#	162574
#	188849
#	200520
#	222589
#	265640
#
# Disc length: 3841 seconds
#
# Revision: 1
# Processed by: cddbd v1.5.1PL0 Copyright (c) Steve Scherf et al.
# Submitted via: audiograbber 1.83.01
#
DISCID=b70eff0c
DTITLE=Dave Meniketti - On The Blue Side
DYEAR=1900
DGENRE=Blues Rock
TTITLE0=Man's World
TTITLE1=Angel On My Shoulder
TTITLE2=Baby Blues
TTITLE3=Take It Like A Man
TTITLE4=Mister Blister
TTITLE5=Can't Do Nothin' Right
TTITLE6=Say Goodbye
TTITLE7=Bad Feeling
TTITLE8=Parchman Farm
TTITLE9=Just Coastin'
TTITLE10=Loan Me A Dime
TTITLE11=Until The Next Time
EXTD=
EXTT0=
EXTT1=
EXTT2=
EXTT3=
EXTT4=
EXTT5=
EXTT6=
EXTT7=
EXTT8=
EXTT9=
EXTT10=
EXTT11=
PLAYORDER=
